:SAMPLES-PER-SECOND 30
:FRAME-RANGE 1-2009
:FULLY-SPECIFIED
:DEGREES
1758
root  -16.8765 39.0686 -105.196 5.00264 28.9952 3.78455
RightUpLeg  -15.8142 -5.54199 -3.979
RightLeg  41.2262 -0.43178 -0.682794
RightFoot  -20.0147 -0.00928626 1.66445
RightToes  2.96424e-010 1.2921e-014 -6.02303e-014
Spine  -3.67391 -3.13107 -5.35113
Spine1  5.84259 -3.50474 -0.015577
HEad  8.56478 20.4404 3.51803
LeftShoulder1  0.792935 -0.34006 -15.1577
LeftArm  -13.4478 -16.4333 -37.9507
LeftForeArm  -3.25576 -34.7095 -7.96671
LeftHand  0.00680115 3.18048 -1.31992
RightShoulder  0.926147 -0.541563 27.3796
RightArm  -32.0543 -11.1272 36.1015
RightForeArm  60.0589 -5.02122 -0.302171
RightHand  0.0838981 -6.13774 -15.5597
LeftUpLeg  -11.2898 0.403716 1.14501
LeftLeg  17.9059 -6.3607 -0.48015
LeftFoot  -11.8503 0.0445891 -5.93349
LeftToes  -1.2485e-010 1.20979e-011 -1.0929e-011
1759
root  -16.5855 39.0662 -104.796 4.96588 27.3198 3.69276
RightUpLeg  -18.0206 -7.20725 -4.56147
RightLeg  40.6455 -0.694959 -0.912531
RightFoot  -19.5073 4.01536e-006 1.85026
RightToes  2.96424e-010 1.2921e-014 -6.02303e-014
Spine  -3.69703 -2.99784 -5.19397
Spine1  6.14311 -3.30762 -0.240729
HEad  8.45009 21.2267 3.81421
LeftShoulder1  0.756058 -0.159954 -15.2294
LeftArm  -11.9371 -14.2285 -38.4517
LeftForeArm  -0.447008 -34.9826 -7.88556
LeftHand  0.00674891 2.87797 -1.07211
RightShoulder  0.88841 -0.693403 27.8876
RightArm  -31.4405 -12.1776 35.7665
RightForeArm  59.867 -5.09238 0.0756505
RightHand  0.101054 -6.25743 -15.7168
LeftUpLeg  -10.102 2.33896 1.25574
LeftLeg  17.6438 -6.57867 -0.87454
LeftFoot  -12.6939 0.0140746 -5.40149
LeftToes  -1.2485e-010 1.20979e-011 -1.0929e-011
1760
root  -16.3384 39.0721 -104.365 4.79912 26.2815 3.55934
RightUpLeg  -19.9137 -8.69821 -5.27397
RightLeg  39.1256 -0.9773 -1.11674
RightFoot  -18.5457 -0.0207183 1.66519
RightToes  2.96424e-010 1.2921e-014 -6.02303e-014
Spine  -3.57755 -3.05116 -5.10404
Spine1  6.36198 -3.40193 0.0467157
HEad  8.94912 22.0617 4.05136
LeftShoulder1  0.733602 -0.0396666 -15.3528
LeftArm  -8.73058 -13.1849 -39.555
LeftForeArm  0.45449 -34.7714 -7.77433
LeftHand  -0.00754018 3.0209 -0.452609
RightShoulder  0.860822 -0.792663 28.1315
RightArm  -31.3349 -13.0163 35.7997
RightForeArm  60.2927 -5.09213 0.157941
RightHand  0.0787492 -6.1061 -15.4267
LeftUpLeg  -8.77873 3.33603 1.44354
LeftLeg  17.1987 -6.48653 -0.99291
LeftFoot  -13.3533 -0.00768046 -4.99034
LeftToes  -1.2485e-010 1.20979e-011 -1.0929e-011
1761
root  -16.1419 39.077 -103.897 4.55034 25.7015 3.26724
RightUpLeg  -21.4743 -9.75767 -6.00288
RightLeg  36.5269 -1.55105 -1.48479
RightFoot  -17.5854 -0.0330483 1.57656
RightToes  2.96424e-010 1.2921e-014 -6.02303e-014
Spine  -3.48606 -3.21673 -4.84505
Spine1  6.60351 -3.64658 0.498189
HEad  9.82495 22.858 4.1964
LeftShoulder1  0.813198 -0.400398 -15.3687
LeftArm  -4.28058 -13.0843 -40.9435
LeftForeArm  0.166535 -33.2331 -7.36621
LeftHand  -0.0226364 2.96825 0.321837
RightShoulder  0.817781 -0.945821 28.5271
RightArm  -30.9337 -13.3419 35.7589
RightForeArm  60.9406 -5.11029 0.393037
RightHand  0.105916 -6.3142 -15.4226
LeftUpLeg  -7.50486 4.05215 1.89989
LeftLeg  16.8075 -6.56927 -1.11519
LeftFoot  -13.9943 -0.0268996 -4.78003
LeftToes  -1.2485e-010 1.20979e-011 -1.0929e-011
1762
root  -15.9832 39.1037 -103.396 4.32191 25.4358 2.88409
RightUpLeg  -22.7362 -10.3728 -6.9106
RightLeg  33.0871 -2.43557 -1.94541
RightFoot  -15.9916 -0.0605659 1.1742
RightToes  2.96424e-010 1.2921e-014 -6.02303e-014
Spine  -3.63029 -3.46332 -4.58567
Spine1  7.2203 -4.0575 1.30818
HEad  10.6433 23.7143 4.2829
LeftShoulder1  1.02378 -1.31009 -15.6327
LeftArm  0.0435703 -13.7468 -42.4239
LeftForeArm  -2.20383 -31.4432 -7.02228
LeftHand  -0.0218991 2.65473 0.325644
RightShoulder  0.773666 -1.08638 28.7221
RightArm  -30.8318 -13.0771 36.0715
RightForeArm  62.0678 -5.08249 0.457782
RightHand  0.126203 -6.45509 -15.5996
LeftUpLeg  -6.09264 4.29118 2.37083
LeftLeg  15.9601 -6.57898 -0.844179
LeftFoot  -14.4633 -0.0486763 -4.96312
LeftToes  -1.2485e-010 1.20979e-011 -1.0929e-011
1763
root  -15.8643 39.1354 -102.858 4.08626 25.5409 2.45145
RightUpLeg  -23.6906 -10.853 -7.93912
RightLeg  29.0304 -3.6049 -2.38773
RightFoot  -13.5432 -0.0785918 0.681195
RightToes  2.96424e-010 1.2921e-014 -6.02303e-014
Spine  -3.70722 -3.94488 -4.23386
Spine1  7.92245 -4.72182 2.0779
HEad  11.0791 24.7506 4.3846
LeftShoulder1  1.24265 -2.26337 -15.7826
LeftArm  4.07052 -15.1858 -44.1994
LeftForeArm  -3.89351 -30.0231 -6.74891
LeftHand  -0.0317374 2.79651 0.764716
RightShoulder  0.754299 -1.16343 29.0737
RightArm  -30.4249 -12.1137 36.2353
RightForeArm  62.9868 -5.0876 0.676764
RightHand  0.107094 -6.34601 -15.1074
LeftUpLeg  -4.62741 4.48237 2.97312
LeftLeg  14.8937 -6.90138 -0.549057
LeftFoot  -14.7706 -0.0651761 -5.13018
LeftToes  -1.2485e-010 1.20979e-011 -1.0929e-011
1764
root  -15.7888 39.123 -102.257 3.99255 25.3912 2.21165
RightUpLeg  -24.4777 -11.0473 -9.09466
RightLeg  24.71 -5.37104 -2.90581
RightFoot  -11.7991 -0.0807898 -0.229976
RightToes  2.96424e-010 1.2921e-014 -6.02303e-014
Spine  -3.83472 -4.45148 -3.81608
Spine1  8.70083 -5.29317 2.31022
HEad  11.1155 26.0962 4.59908
LeftShoulder1  1.42333 -3.10246 -15.6741
LeftArm  6.34822 -17.4839 -46.4064
LeftForeArm  -5.89744 -28.0707 -6.37008
LeftHand  -0.049938 3.16803 1.77894
RightShoulder  0.755015 -1.18107 29.4092
RightArm  -29.9375 -10.8281 36.7502
RightForeArm  63.7927 -5.10919 0.971944
RightHand  0.117843 -6.42824 -15.1315
LeftUpLeg  -3.14705 4.93059 3.65592
LeftLeg  13.9243 -7.25856 -0.535512
LeftFoot  -15.2713 -0.0918769 -5.34098
LeftToes  -1.2485e-010 1.20979e-011 -1.0929e-011
1765
root  -15.7525 39.06 -101.583 4.13431 24.914 2.21111
RightUpLeg  -25.1733 -11.346 -10.1816
RightLeg  20.0596 -7.35875 -3.17019
RightFoot  -10.4599 -0.0661875 -0.601739
RightToes  2.96424e-010 1.2921e-014 -6.02303e-014
Spine  -4.09565 -4.81982 -3.75822
Spine1  9.63174 -5.77185 2.77322
HEad  10.8433 27.3904 4.53784
LeftShoulder1  1.62482 -3.99049 -15.7404
LeftArm  7.21733 -20.648 -48.5272
LeftForeArm  -7.3203 -26.2652 -6.01167
LeftHand  -0.0267235 2.53073 0.540559
RightShoulder  0.74178 -1.22302 29.4856
RightArm  -29.5761 -9.51598 37.5302
RightForeArm  64.4198 -5.12794 1.21509
RightHand  0.109358 -6.3634 -15.1115
LeftUpLeg  -1.76486 5.3689 4.25079
LeftLeg  13.1529 -7.32774 -0.614258
LeftFoot  -15.9294 -0.130241 -5.62932
LeftToes  -1.2485e-010 1.20979e-011 -1.0929e-011
